<?xml version="1.0" encoding="utf-8"?>
<!-- Generator: Adobe Illustrator 21.0.1, SVG Export Plug-In . SVG Version: 6.00 Build 0)  -->
<svg version="1.1" id="Layer_1" xmlns="http://www.w3.org/2000/svg" xmlns:xlink="http://www.w3.org/1999/xlink" x="0px" y="0px"
	 viewBox="0 0 841.9 595.3" style="enable-background:new 0 0 841.9 595.3;" xml:space="preserve">
<style type="text/css">
	.st0{fill:#801323;}
	.st1{fill:#070808;}
	.st2{fill:#801323;stroke:#070808;stroke-width:4;stroke-miterlimit:10;}
	.st3{fill:none;stroke:#1E1D1D;stroke-width:4;stroke-miterlimit:10;}
	.st4{fill:#181818;}
	.st5{fill:none;stroke:#181818;stroke-width:2;stroke-miterlimit:10;}
</style>
<g>
	<path class="st0" d="M147.5,382.7v34.1h-33.9v-34.1H96.9v85.9h16.7v-38h33.9v38h16.7v-85.9H147.5z"/>
	<path class="st1" d="M166.1,470.6h-20.7v-38h-29.9v38H95v-89.9h20.7v34.1h29.9v-34.1h20.7V470.6z M149.5,466.6h12.7v-81.9h-12.7
		v34.1h-37.9v-34.1H99v81.9h12.7v-38h37.9V466.6z"/>
</g>
<g>
	<path class="st2" d="M239.7,424.6c-1.7-4-4.1-7.5-7.1-10.4c-3-2.9-6.5-5.2-10.6-6.9c-4-1.7-8.4-2.5-13-2.5c-4.5,0-8.8,0.8-12.8,2.5
		c-4,1.7-7.5,4-10.5,7c-3,3-5.4,6.5-7.2,10.4c-1.8,4-2.6,8.2-2.6,12.7c0,4.6,0.9,8.9,2.6,12.8c1.7,4,4.1,7.4,7.1,10.4
		c3,2.9,6.5,5.3,10.5,6.9c4,1.7,8.3,2.5,12.9,2.5c4.6,0,8.9-0.8,13-2.5c4-1.7,7.6-4,10.6-6.9c3-2.9,5.4-6.3,7.1-10.3
		c1.7-4,2.6-8.3,2.6-13C242.3,433,241.4,428.7,239.7,424.6z M225.4,445c-0.9,2.3-2.2,4.3-3.8,6c-1.6,1.7-3.5,3.1-5.6,4
		c-2.2,1-4.4,1.5-6.9,1.5s-4.7-0.5-6.9-1.5c-2.1-1-4-2.3-5.6-4s-2.9-3.7-3.8-6c-0.9-2.3-1.4-4.8-1.4-7.4c0-2.7,0.5-5.1,1.4-7.4
		c0.9-2.3,2.2-4.3,3.8-6c1.6-1.7,3.5-3.1,5.6-4c2.1-1,4.4-1.4,6.9-1.4s4.7,0.5,6.9,1.4c2.1,1,4,2.3,5.6,4c1.6,1.7,2.9,3.7,3.8,6
		c0.9,2.3,1.4,4.8,1.4,7.4C226.8,440.2,226.4,442.7,225.4,445z"/>
</g>
<g>
	<path class="st0" d="M291.5,406.5v45.2c-3.7,3.4-8,5.2-13,5.2c-1.6,0-3.1-0.3-4.6-0.8c-1.5-0.5-2.8-1.4-3.9-2.5
		c-1.1-1.1-2-2.5-2.7-4.2c-0.7-1.7-1-3.6-1-5.9v-37h-15.5v37.7c0,4.5,0.7,8.4,2,11.7c1.3,3.3,3.1,6,5.3,8.1c2.2,2.1,4.8,3.6,7.7,4.6
		c2.9,1,5.9,1.5,9.1,1.5c1.4,0,2.8-0.1,4.3-0.4c1.5-0.3,3-0.7,4.5-1.2c1.5-0.5,2.9-1.2,4.2-1.9s2.5-1.6,3.5-2.6v4.7H307v-62.1H291.5
		z"/>
	<path class="st1" d="M275,472.1c-3.4,0-6.7-0.5-9.7-1.6c-3.1-1.1-6-2.8-8.4-5c-2.4-2.3-4.4-5.2-5.8-8.8c-1.4-3.5-2.1-7.7-2.1-12.5
		v-39.7h19.5v39c0,1.9,0.3,3.7,0.9,5.1c0.6,1.4,1.3,2.6,2.2,3.5c0.9,0.9,1.9,1.6,3.2,2c1.2,0.5,2.5,0.7,3.9,0.7c4.3,0,7.9-1.3,11-4
		v-46.3H309v66.1h-19.5V468c-0.2,0.1-0.3,0.2-0.5,0.3c-1.4,0.8-3,1.5-4.5,2.1c-1.5,0.6-3.2,1-4.8,1.3
		C278.1,472,276.5,472.1,275,472.1z M252.9,408.5v35.7c0,4.2,0.6,7.9,1.8,11c1.2,3,2.8,5.5,4.8,7.3c2,1.9,4.3,3.3,7,4.2
		c2.7,0.9,5.5,1.4,8.4,1.4c1.2,0,2.6-0.1,4-0.4c1.4-0.3,2.9-0.7,4.2-1.2c1.3-0.5,2.6-1.1,3.9-1.8c1.2-0.7,2.2-1.4,3.1-2.3l3.4-3.5
		v7.6H305v-58.1h-11.5v44l-0.6,0.6c-4,3.8-8.9,5.7-14.4,5.7c-1.8,0-3.6-0.3-5.3-0.9c-1.7-0.6-3.3-1.6-4.6-2.9
		c-1.3-1.3-2.3-2.9-3.1-4.9c-0.8-1.9-1.2-4.1-1.2-6.6v-35H252.9z"/>
</g>
<g>
	<path class="st0" d="M363.9,444.3c-1-2-2.4-3.9-4.3-5.5c-1.8-1.6-3.9-3-6.2-4.3c-2.4-1.2-4.9-2.2-7.5-3c-4.1-1.2-7.2-2.4-9.4-3.7
		c-2.2-1.2-3.3-2.7-3.3-4.3c0-0.9,0.3-1.8,0.9-2.5c0.6-0.8,1.3-1.4,2.2-1.8c0.9-0.5,1.9-0.8,2.9-1.1s2-0.4,3-0.4
		c2.7,0,5.2,0.6,7.5,1.9c2.3,1.3,4.3,3,6.1,5.3l9.3-9.3c-6-7.2-13.8-10.8-23.3-10.8c-3,0-5.9,0.4-8.7,1.3c-2.9,0.9-5.4,2.1-7.7,3.7
		s-4.1,3.6-5.5,6c-1.4,2.4-2.1,5.1-2.1,8.1c0,2.7,0.5,5.1,1.6,7.2c1.1,2.1,2.5,3.9,4.3,5.5c1.8,1.6,3.8,3,6.1,4.1
		c2.3,1.1,4.7,2,7.1,2.7c4.2,1.2,7.4,2.5,9.7,3.7c2.3,1.3,3.4,2.8,3.4,4.7c0,1.8-0.8,3.1-2.4,4c-1.6,0.9-3.6,1.3-6.1,1.3
		c-2.8,0-5.4-0.7-7.8-2c-2.4-1.3-4.6-3.2-6.5-5.5l-9.4,9.5c3,3.9,6.5,6.7,10.5,8.4c4,1.8,8.4,2.6,13.1,2.6c2.8,0,5.6-0.4,8.5-1.2
		c2.9-0.8,5.5-2,7.8-3.7c2.3-1.6,4.2-3.6,5.6-6c1.4-2.4,2.2-5.1,2.2-8.2C365.5,448.6,365,446.3,363.9,444.3z"/>
	<path class="st1" d="M341.5,472.3c-5,0-9.7-0.9-13.9-2.8c-4.3-1.9-8.1-4.9-11.3-9l-1.1-1.4l12.2-12.3l1.4,1.8
		c1.7,2.1,3.6,3.8,5.8,5c2.1,1.2,4.4,1.7,6.9,1.7c2.1,0,3.8-0.4,5.1-1.1c1-0.5,1.4-1.2,1.4-2.3c0-0.4,0-1.6-2.4-2.9
		c-2.2-1.2-5.3-2.4-9.3-3.5c-2.5-0.7-5-1.7-7.4-2.9c-2.5-1.2-4.7-2.7-6.6-4.4c-2-1.8-3.6-3.9-4.7-6.1c-1.2-2.4-1.8-5.1-1.8-8.1
		c0-3.3,0.8-6.4,2.4-9.1c1.5-2.6,3.6-4.9,6.1-6.6c2.4-1.7,5.2-3.1,8.3-4c3-0.9,6.2-1.4,9.3-1.4c10.1,0,18.4,3.9,24.8,11.5l1.2,1.4
		L355.7,428l-1.4-1.7c-1.6-2-3.5-3.6-5.5-4.8c-2-1.1-4.2-1.7-6.5-1.7c-0.8,0-1.6,0.1-2.5,0.3c-0.9,0.2-1.7,0.5-2.5,0.9
		c-0.6,0.3-1.1,0.7-1.5,1.3c-0.3,0.4-0.5,0.8-0.5,1.3c0,0.9,0.8,1.7,2.3,2.6c2.1,1.1,5.1,2.3,9,3.5c2.7,0.8,5.4,1.9,7.9,3.1
		c2.5,1.3,4.7,2.8,6.7,4.5c2,1.8,3.5,3.8,4.7,6.1l0,0c1.2,2.3,1.8,5,1.8,7.8c0,3.4-0.8,6.5-2.4,9.2c-1.6,2.6-3.6,4.9-6.2,6.6
		c-2.4,1.7-5.3,3.1-8.4,3.9C347.5,471.9,344.5,472.3,341.5,472.3z M320.6,459.4c2.5,2.9,5.4,5.1,8.6,6.5c3.7,1.6,7.8,2.5,12.3,2.5
		c2.6,0,5.3-0.4,8-1.2c2.7-0.8,5-1.9,7.2-3.4c2.1-1.4,3.8-3.3,5-5.4c1.2-2.1,1.9-4.5,1.9-7.2c0-2.3-0.4-4.3-1.3-6
		c-0.9-1.8-2.2-3.5-3.8-4.9c-1.7-1.5-3.6-2.8-5.8-4c-2.3-1.2-4.7-2.1-7.2-2.9c-4.2-1.2-7.5-2.5-9.8-3.8c-2.9-1.6-4.3-3.6-4.3-6
		c0-1.4,0.4-2.7,1.3-3.8c0.7-1,1.7-1.8,2.9-2.4c1.1-0.5,2.2-1,3.4-1.2c1.2-0.3,2.4-0.4,3.4-0.4c3,0,5.9,0.7,8.5,2.2
		c1.9,1.1,3.6,2.4,5.2,4.1l6.4-6.5c-5.5-5.8-12.2-8.7-20.5-8.7c-2.7,0-5.5,0.4-8.2,1.2c-2.6,0.8-5,1.9-7.1,3.4
		c-2,1.4-3.7,3.3-4.9,5.4c-1.2,2.1-1.8,4.5-1.8,7.1c0,2.4,0.5,4.5,1.4,6.3c0.9,1.8,2.2,3.5,3.9,5c1.6,1.5,3.5,2.7,5.7,3.8
		c2.2,1.1,4.5,2,6.8,2.6c4.3,1.2,7.6,2.5,10.1,3.9c3.7,2,4.5,4.6,4.5,6.4c0,2.5-1.2,4.5-3.5,5.8c-1.9,1.1-4.3,1.6-7,1.6
		c-3.1,0-6.1-0.8-8.8-2.2c-2.1-1.1-3.9-2.6-5.6-4.4L320.6,459.4z"/>
</g>
<g>
	<path class="st2" d="M436.6,424.3c-1.8-4-4.2-7.4-7.3-10.3c-3.1-2.9-6.6-5.1-10.6-6.7c-4-1.6-8.2-2.4-12.6-2.4
		c-4.6,0-8.9,0.9-12.9,2.6c-4,1.7-7.5,4.1-10.5,7c-3,2.9-5.4,6.4-7.1,10.4c-1.7,4-2.6,8.2-2.6,12.7c0,4.5,0.9,8.8,2.6,12.7
		c1.7,4,4.1,7.4,7,10.4c3,2.9,6.5,5.3,10.5,7c4,1.7,8.4,2.6,13.1,2.6c4.6,0,8.9-0.7,13.1-2c4.1-1.3,8.3-3.6,12.6-6.8l-9.8-9.8
		c-1.9,1.7-4.2,2.9-7,3.9c-2.8,1-5.6,1.4-8.4,1.4c-2.3,0-4.4-0.3-6.3-1c-1.9-0.7-3.6-1.6-5.1-2.8c-1.5-1.2-2.8-2.6-3.8-4.2
		c-1-1.6-1.8-3.3-2.4-5.1h49.7c0.2-1.1,0.3-2.3,0.4-3.3c0.1-1.1,0.2-2.1,0.2-3.1C439.3,432.6,438.4,428.3,436.6,424.3z M389,431.4
		c1.2-3.9,3.4-7.1,6.5-9.5c3.1-2.4,6.6-3.6,10.4-3.6c3.9,0,7.5,1.2,10.6,3.6c3.1,2.4,5.3,5.6,6.5,9.5H389z"/>
</g>
<g>
	<path d="M543.4,382.6l-18.4,55.7l-15.7-55.7h-13.8l-15.7,55.6l-18.2-55.6h-17.6l28,86h14.6l15.9-53.1l15.8,53.1H533l28-86H543.4z"
		/>
</g>
<g>
	<path d="M623.6,424.6c-1.7-4-4.1-7.5-7.1-10.4c-3-2.9-6.5-5.2-10.6-6.9c-4-1.7-8.4-2.5-13-2.5c-4.5,0-8.8,0.8-12.8,2.5
		c-4,1.7-7.5,4-10.5,7c-3,3-5.4,6.5-7.2,10.4c-1.8,4-2.6,8.2-2.6,12.7c0,4.6,0.9,8.9,2.6,12.8c1.7,4,4.1,7.4,7.1,10.4
		c3,2.9,6.5,5.3,10.5,6.9c4,1.7,8.3,2.5,12.9,2.5c4.6,0,8.9-0.8,13-2.5c4-1.7,7.6-4,10.6-6.9s5.4-6.3,7.1-10.3c1.7-4,2.6-8.3,2.6-13
		C626.2,433,625.4,428.7,623.6,424.6z M609.3,445c-0.9,2.3-2.2,4.3-3.8,6c-1.6,1.7-3.5,3.1-5.6,4c-2.2,1-4.4,1.5-6.9,1.5
		c-2.4,0-4.7-0.5-6.9-1.5c-2.1-1-4-2.3-5.6-4c-1.6-1.7-2.9-3.7-3.8-6c-0.9-2.3-1.4-4.8-1.4-7.4c0-2.7,0.5-5.1,1.4-7.4
		c0.9-2.3,2.2-4.3,3.8-6c1.6-1.7,3.5-3.1,5.6-4c2.1-1,4.4-1.4,6.9-1.4c2.4,0,4.7,0.5,6.9,1.4c2.1,1,4,2.3,5.6,4
		c1.6,1.7,2.9,3.7,3.8,6c0.9,2.3,1.4,4.8,1.4,7.4C610.7,440.2,610.3,442.7,609.3,445z"/>
</g>
<g>
	<path d="M673.1,407.1c-2.6-1.5-5.3-2.2-8-2.2c-2.8,0-5.3,0.7-7.6,2.2c-2.3,1.4-4.3,3.5-6.2,6.1v-6.7h-15.5v62.1h15.5v-35
		c0-2.6,0.4-4.8,1.1-6.5c0.7-1.8,1.6-3.2,2.6-4.3c1-1.1,2.2-1.8,3.3-2.3c1.2-0.5,2.3-0.7,3.3-0.7c1.9,0,3.7,0.6,5.5,1.9
		c1.8,1.3,3.5,2.7,5,4.4l8.3-13.1C678.2,410.5,675.8,408.5,673.1,407.1z"/>
</g>
<g>
	<path d="M716.1,436.7l25.5-30.2h-18.1l-21.7,26.3v-53.3H686v89.1h15.8v-27.8l24.9,27.8h18.4L716.1,436.7z"/>
</g>
<g>
	<path d="M794.5,444.3c-1-2-2.5-3.9-4.3-5.5c-1.8-1.6-3.9-3-6.2-4.3c-2.4-1.2-4.9-2.2-7.5-3c-4.1-1.2-7.2-2.4-9.4-3.7
		c-2.2-1.2-3.3-2.7-3.3-4.3c0-0.9,0.3-1.8,0.9-2.5c0.6-0.8,1.3-1.4,2.2-1.8c0.9-0.5,1.9-0.8,2.9-1.1c1-0.3,2-0.4,3-0.4
		c2.7,0,5.2,0.6,7.5,1.9c2.3,1.3,4.3,3,6.1,5.3l9.3-9.3c-6-7.2-13.8-10.8-23.3-10.8c-2.9,0-5.9,0.4-8.7,1.3
		c-2.9,0.9-5.5,2.1-7.7,3.7c-2.3,1.6-4.1,3.6-5.5,6c-1.4,2.4-2.1,5.1-2.1,8.1c0,2.7,0.5,5.1,1.6,7.2c1.1,2.1,2.5,3.9,4.3,5.5
		c1.8,1.6,3.8,3,6.1,4.1c2.3,1.1,4.7,2,7.1,2.7c4.2,1.2,7.4,2.5,9.7,3.7c2.3,1.3,3.4,2.8,3.4,4.7c0,1.8-0.8,3.1-2.4,4
		c-1.6,0.9-3.6,1.3-6.1,1.3c-2.8,0-5.4-0.7-7.8-2c-2.4-1.3-4.6-3.2-6.5-5.5l-9.4,9.5c3,3.9,6.5,6.7,10.5,8.4c4,1.8,8.3,2.6,13.1,2.6
		c2.8,0,5.6-0.4,8.5-1.2c2.9-0.8,5.5-2,7.8-3.7c2.3-1.6,4.2-3.6,5.6-6c1.4-2.4,2.2-5.1,2.2-8.2C796.1,448.6,795.6,446.3,794.5,444.3
		z"/>
</g>
<g>
	<path d="M276.4,506.4h8.3l3.7,26.6h0.1l3.7-26.6h8.3v37.2h-5.5v-28.2H295l-4.3,28.2h-4.9l-4.3-28.2h-0.1v28.2h-5.1V506.4z"/>
	<path d="M320.1,506.4h7.9l6.1,37.2h-5.8l-1.1-7.4v0.1h-6.6l-1.1,7.3h-5.4L320.1,506.4z M326.5,531.3l-2.6-18.4h-0.1l-2.5,18.4
		H326.5z"/>
	<path d="M347.6,506.4h5.8v37.2h-5.8V506.4z"/>
	<path d="M368.4,506.4h7.3l5.7,22.3h0.1v-22.3h5.2v37.2h-6l-7-27.1h-0.1v27.1h-5.2V506.4z"/>
	<path d="M406.3,511.7h-6.1v-5.3h18.1v5.3h-6.1v31.9h-5.8V511.7z"/>
	<path d="M431.6,506.4h15.9v5.3h-10.1v9.8h8v5.3h-8v11.4h10.1v5.3h-15.9V506.4z"/>
	<path d="M461.6,506.4h7.3l5.7,22.3h0.1v-22.3h5.2v37.2h-6l-7-27.1h-0.1v27.1h-5.2V506.4z"/>
	<path d="M499.4,506.4h7.9l6.1,37.2h-5.8l-1.1-7.4v0.1h-6.6l-1.1,7.3h-5.4L499.4,506.4z M505.7,531.3l-2.6-18.4H503l-2.5,18.4H505.7
		z"/>
	<path d="M526.8,506.4h7.3l5.7,22.3h0.1v-22.3h5.2v37.2h-6l-7-27.1H532v27.1h-5.2V506.4z"/>
	<path d="M561.9,541.7c-1.5-1.6-2.2-3.8-2.2-6.7v-20c0-2.9,0.7-5.2,2.2-6.7c1.5-1.6,3.6-2.4,6.4-2.4c2.8,0,4.9,0.8,6.4,2.4
		c1.5,1.6,2.2,3.8,2.2,6.7v3.9h-5.5v-4.3c0-2.3-1-3.5-2.9-3.5c-1.9,0-2.9,1.2-2.9,3.5v20.8c0,2.3,1,3.4,2.9,3.4
		c1.9,0,2.9-1.1,2.9-3.4v-5.7h5.5v5.3c0,2.9-0.7,5.2-2.2,6.7s-3.6,2.4-6.4,2.4C565.5,544.1,563.4,543.3,561.9,541.7z"/>
	<path d="M591.1,506.4H607v5.3h-10.1v9.8h8v5.3h-8v11.4H607v5.3h-15.9V506.4z"/>
</g>
<g>
	<rect x="102.6" y="526.6" width="113.1" height="1"/>
</g>
<g>
	<rect x="690.2" y="526.6" width="113.1" height="1"/>
</g>
<g>
	<path class="st0" d="M640.5,218.2c2.4,6.4,3.7,13.1,3.7,19.9c0,6.9-1.3,13.8-3.9,20.3c-6.6,16.8-21.1,31-40.8,40l-0.3,0.1H465
		v-41.8h124.8c7.4-2.6,12.3-9.5,12.3-17.3c0-7.7-4.8-14.6-12-17.3c-2-0.8-4.2-1.2-6.4-1.2h-77v25.3H465V177h118.7
		c2.9,0,5.7-0.7,8.2-2c6.3-3.1,10.2-9.4,10.2-16.4c0-10.1-8.3-18.4-18.4-18.4h-77v25.3H465V97.4l128.8,0.1
		c21.5,8.1,38.3,22.7,45.8,39.9c3.1,7,4.6,14.3,4.6,21.8c0,7-1.4,13.9-4.1,20.5c-2.7,6.6-6.7,12.8-11.9,18.5
		C633.7,204.4,637.8,211.1,640.5,218.2z"/>
</g>
<g>
	<path class="st3" d="M475.9,343.2"/>
</g>
<g>
	<g>
		<path class="st4" d="M349.9,299.9h-73.4V124.5h73.4c0.7,0,18.5,0.1,36.6,9.1c16.8,8.4,36.8,26.4,36.8,64.2s-20,55.9-36.8,64.2
			c-18.1,9-35.8,9.1-36.6,9.1H305V155.1c0-1.1,0.9-2,2-2s2,0.9,2,2v112.2h40.8c0.2,0,17.7-0.1,34.9-8.8
			c22.9-11.5,34.5-31.9,34.5-60.6s-11.6-49.1-34.5-60.6c-17.2-8.7-34.7-8.8-34.9-8.8h-69.4v167.3h69.4c0.2,0,24.9-0.2,49.2-12.3
			c32.3-16.2,48.7-45,48.7-85.6c0-40.6-16.4-69.4-48.9-85.7c-24.3-12.1-48.8-12.3-49.1-12.3h-97.9v197.9c0,1.1-0.9,2-2,2s-2-0.9-2-2
			V96h101.9c1,0,25.7,0.1,50.9,12.7c23.3,11.6,51.1,36.6,51.1,89.2s-27.8,77.6-51.1,89.2C375.6,299.7,350.9,299.9,349.9,299.9z"/>
	</g>
	<g>
		<path class="st4" d="M259.9,299.9c-1.1,0-2-0.9-2-2V106h91.9c0.9,0,23.2,0.1,45.9,11.5c21,10.5,46.1,33,46.1,80.5
			c0,47.5-25.1,70-46.1,80.5c-22.6,11.3-44.9,11.5-45.9,11.5h-63.3l0.1-158.2h63.2c0.7,0,16.7,0.1,33,8.2
			c15.2,7.6,33.2,23.8,33.2,58c0,34.2-18.1,50.4-33.2,58c-16.3,8.1-32.3,8.2-33,8.2h-36.7L312.9,155c0-1.1,0.9-2,2-2c0,0,0,0,0,0
			c1.1,0,2,0.9,2,2l0.2,105.1h32.7c0.2,0,15.9-0.1,31.4-7.9c20.5-10.3,30.9-28.6,30.9-54.4c0-25.8-10.4-44.1-31-54.4
			c-15.5-7.7-31.1-7.8-31.2-7.8h-59.2l-0.1,150.2h59.3c0.2,0,22.4-0.1,44.2-11.1c29-14.6,43.7-40.4,43.7-76.9
			c0-36.5-14.8-62.4-43.9-76.9c-21.8-10.9-43.9-11-44.1-11h-87.9v187.9C261.9,299,261,299.9,259.9,299.9z"/>
	</g>
</g>
<g>
	<g>
		<path class="st5" d="M628.2,198.4c5.2-5.7,9.2-12,11.9-18.5c2.7-6.6,4.1-13.5,4.1-20.5c0-7.5-1.6-14.8-4.6-21.8
			c-7.6-17.3-24.3-31.8-45.8-39.9L465,97.4v68.1h41.8v-25.3h77c10.1,0,18.4,8.3,18.4,18.4c0,7-3.9,13.3-10.2,16.4
			c-2.5,1.3-5.3,2-8.2,2H465v69.1h41.8v-25.3h77c2.2,0,4.4,0.4,6.4,1.2c7.2,2.6,12,9.6,12,17.3c0,7.8-4.9,14.7-12.3,17.3H465v41.8
			h134.3l0.3-0.1c19.7-9,34.2-23.2,40.8-40c2.6-6.5,3.9-13.4,3.9-20.3c0-6.8-1.3-13.5-3.7-19.9C637.8,211.1,633.7,204.4,628.2,198.4
			z M638,257.4c-6.3,16.1-20.2,29.8-39.2,38.5H467.5v-36.8H590l0.4-0.1c8.5-2.9,14.2-10.8,14.2-19.8c0-8.7-5.5-16.6-13.6-19.6
			c-2.3-0.8-4.7-1.3-7.2-1.3h-79.5v25.3h-36.8v-64.1c0,0,0.1,0,0.1,0h116.1c3.2,0,6.5-0.8,9.3-2.2c7.1-3.6,11.5-10.7,11.5-18.7
			c0-11.5-9.4-20.9-20.9-20.9h-79.5V163h-36.8V99.9h125.6c20.8,7.9,36.9,21.9,44.2,38.5c3,6.6,4.4,13.7,4.4,20.8
			c0,6.7-1.3,13.3-3.9,19.6c-2.7,6.6-6.8,12.9-12.2,18.7l-0.8,0.8l0.8,0.8c5.6,6.1,9.8,12.8,12.5,19.9c2.4,6.1,3.6,12.5,3.6,19
			C641.7,244.6,640.4,251.2,638,257.4z"/>
	</g>
</g>
<g>
	<path class="st4" d="M448.1,360.2H267.3c-11.3,0-20.5-9.2-20.5-20.5s9.2-20.5,20.5-20.5h180.8V360.2z M267.3,323.3
		c-9.1,0-16.5,7.4-16.5,16.5s7.4,16.5,16.5,16.5h176.8v-32.9H267.3z"/>
</g>
<g>
	<path class="st4" d="M458.9,357.3l-4-0.4v-34.4l4-0.4c0.4,2.3,1.5,4.4,3.2,6c2.2,2.2,5.1,3.4,8.1,3.4h8.6v16.3h-8.6
		C464.7,347.9,459.9,351.9,458.9,357.3z M459,330.7v18.1c2.9-3,6.9-4.9,11.3-4.9h4.6v-8.3h-4.6c-4.1,0-8-1.6-11-4.6
		C459.2,330.9,459.1,330.8,459,330.7z"/>
</g>
<g>
	<path class="st4" d="M607.4,347.9H474.9v-16.3h133l-5,3.6c-0.2,0.2-0.4,0.4-0.7,0.6c-0.1,0.1-0.2,0.2-0.3,0.3l-0.1,0.2
		c-0.7,0.9-1.1,2.1-1.1,3.4c0,1.4,0.5,2.8,1.5,3.9l0,0c0.2,0.2,0.4,0.4,0.8,0.7L607.4,347.9z M478.9,343.9h118.7
		c-0.6-1.3-0.9-2.7-0.9-4.1c0-1.5,0.3-2.9,0.9-4.2H478.9V343.9z"/>
</g>
<g>
	<path class="st4" d="M623,353.4l-19.4-4.3c-1.1-0.3-2.2-0.9-3.1-1.6c-0.5-0.4-0.9-0.8-1.3-1.2c-1.6-1.8-2.6-4.1-2.6-6.6
		c0-2.1,0.7-4.2,1.9-5.8l0.1-0.2c0.2-0.2,0.3-0.4,0.5-0.6c0.4-0.5,0.9-0.9,1.3-1.2c0.9-0.7,1.9-1.2,3.1-1.6l0.1,0l19.3-4.2l21.2,6.3
		V347L623,353.4z M604.7,345.2l18.2,4l17.3-5.2v-8.5l-17.3-5.2l-18.2,4c-0.6,0.2-1.2,0.5-1.7,0.9c-0.3,0.2-0.5,0.4-0.8,0.7
		c-0.1,0.1-0.2,0.2-0.3,0.3l-0.1,0.2c-0.7,0.9-1.1,2.1-1.1,3.4c0,1.4,0.5,2.8,1.5,3.9c0.2,0.2,0.4,0.4,0.8,0.7
		C603.4,344.7,604,345,604.7,345.2z"/>
</g>
<g>
	<path class="st4" d="M451.5,367.2c-4.1,0-7.4-3.3-7.4-7.4v-40.1c0-4.1,3.3-7.4,7.4-7.4c2,0,3.8,0.8,5.2,2.2
		c1.4,1.4,2.2,3.2,2.2,5.2v40.1C459,363.9,455.6,367.2,451.5,367.2z M451.5,316.3c-1.9,0-3.4,1.5-3.4,3.4v40.1
		c0,1.9,1.5,3.4,3.4,3.4c1.9,0,3.4-1.5,3.4-3.4v-40.1c0-0.9-0.4-1.8-1-2.4C453.3,316.6,452.4,316.3,451.5,316.3z"/>
</g>
<g>
	<path class="st4" d="M383.5,353.3H273.8c-1.1,0-2-0.9-2-2s0.9-2,2-2h109.7c1.1,0,2,0.9,2,2S384.6,353.3,383.5,353.3z"/>
</g>
<g>
	<path class="st4" d="M383.5,345.6H273.8c-1.1,0-2-0.9-2-2s0.9-2,2-2h109.7c1.1,0,2,0.9,2,2S384.6,345.6,383.5,345.6z"/>
</g>
<g>
	<path class="st4" d="M383.5,337.9H273.8c-1.1,0-2-0.9-2-2s0.9-2,2-2h109.7c1.1,0,2,0.9,2,2S384.6,337.9,383.5,337.9z"/>
</g>
<g>
	<path class="st4" d="M383.5,330.2H273.8c-1.1,0-2-0.9-2-2s0.9-2,2-2h109.7c1.1,0,2,0.9,2,2S384.6,330.2,383.5,330.2z"/>
</g>
</svg>
